# xmcd
#
# Track frame offsets: 
#        150
#        15153
#        32277
#
# Disc length: 613 seconds
#
# Revision: 0
# Processed by: cddbd v1.5.2PL0 Copyright (c) Steve Scherf et al.
# Submitted via: ExactAudioCopy v0.95b4
#
DISCID=0d026303
DTITLE=Daniel O' Donnell - Crush On You [CD Single)
DYEAR=1900
DGENRE=Country
TTITLE0=Crush On You
TTITLE1=Maria
TTITLE2=Tonight I've Held My Future
EXTD=
EXTT0=
EXTT1=
EXTT2=
PLAYORDER=
